# xmcd CD database file
#
# Track frame offsets:
#	150
#	20180
#	44309
#	75815
#	103123
#	132437
#	150695
#	169277
#	186727
#
# Disc length: 2732 seconds
#
# Revision: 0
# Processed by: cddbd v1.5.2PL0 Copyright (c) Steve Scherf et al.
# Submitted via: CDex 1.70beta2
#
DISCID=770aaa09
DTITLE=Marcella Carboni - Still Chime
DYEAR=2014
DGENRE=Jazz
TTITLE0=Still Chime
TTITLE1=Babel
TTITLE2=Samba em Preludio
TTITLE3=I sogni di Pietro
TTITLE4=L'heure oblique
TTITLE5=Undras
TTITLE6=African flower
TTITLE7=The nearness of You
TTITLE8=If it's magic
EXTD=YEAR: 2014
EXTT0=
EXTT1=
EXTT2=
EXTT3=
EXTT4=
EXTT5=
EXTT6=
EXTT7=
EXTT8=
PLAYORDER=
